<svg width="24" height="24" viewBox="0 0 24 24" xmlns="http://www.w3.org/2000/svg"><g fill="#936d00" fill-rule="evenodd"><path d="M15.8 13.371h-2.429V15.8a1 1 0 0 1-1 1h-.742a1 1 0 0 1-1-1v-2.429H8.2a1 1 0 0 1-1-1v-.742a1 1 0 0 1 1-1h2.429V8.2a1 1 0 0 1 1-1h.742a1 1 0 0 1 1 1v2.429H15.8a1 1 0 0 1 1 1v.742a1 1 0 0 1-1 1z"/><path d="M0 12c0 6.627 5.373 12 12 12 6.628 0 12-5.373 12-12S18.628 0 12 0C5.373 0 0 5.373 0 12zm22 0c0 5.514-4.485 10-10 10-5.514 0-10-4.486-10-10S6.486 2 12 2c5.515 0 10 4.486 10 10z"/></g></svg>
