<svg width="24" height="24" viewBox="0 0 24 24" xmlns="http://www.w3.org/2000/svg"><g fill="none" fill-rule="evenodd"><path d="M2 1a1 1 0 0 0-1 1v18a3 3 0 0 0 3 3h16a3 3 0 0 0 3-3V2a1 1 0 0 0-1-1H2z" stroke="#1F2E30" stroke-width="2"/><rect fill="#1F2E30" width="24" height="4" rx="2"/><path d="M10.87 17a1.28 1.28 0 0 1-.899-.364l-2.623-2.571a1.152 1.152 0 0 1 0-1.65 1.207 1.207 0 0 1 1.685 0l1.77 1.733L14.9 9.412a1.209 1.209 0 0 1 1.68-.135c.501.417.562 1.154.137 1.645l-4.915 5.68-.035.034c-.24.234-.558.364-.898.364" fill="#1F2E30"/></g></svg>
