<svg width="36" height="32" xmlns="http://www.w3.org/2000/svg"><g fill="none" fill-rule="evenodd"><path d="M2 1v30.5" stroke="#C5C5C5" stroke-linecap="square"/><path d="M13.304 5.108c-.709 0-1.304.682-1.304 1.494v19.714c0 .812.595 1.493 1.304 1.493h21.392c.709 0 1.304-.681 1.304-1.493V6.602c0-.812-.595-1.494-1.304-1.494H13.304zm.261 1.792h20.87v4.78h-20.87V6.9zM18 8.095c-.576 0-1.043.535-1.043 1.195s.467 1.195 1.043 1.195c.576 0 1.043-.535 1.043-1.195S18.576 8.095 18 8.095zm12 0c-.576 0-1.043.535-1.043 1.195s.467 1.195 1.043 1.195c.576 0 1.043-.535 1.043-1.195S30.576 8.095 30 8.095zm-16.435 5.377h20.87v12.545h-20.87V13.472zm2.087 1.493v4.182h3.391v-4.182h-3.39zm4.435 0v4.182h3.391v-4.182h-3.391zm4.435 0v4.182h3.391v-4.182h-3.391zm4.435 0v4.182h3.39v-4.182h-3.39zm-13.305 5.377v4.182h3.391v-4.182h-3.39zm4.435 0v4.182h3.391v-4.182h-3.391zm4.435 0v4.182h3.391v-4.182h-3.391z" fill="#4A4A4C" fill-rule="nonzero"/></g></svg>
