<svg width="24" height="24" viewBox="0 0 24 24" xmlns="http://www.w3.org/2000/svg"><g fill="none" fill-rule="evenodd"><path d="M2 1a1 1 0 0 0-1 1v18a3 3 0 0 0 3 3h16a3 3 0 0 0 3-3V2a1 1 0 0 0-1-1H2z" stroke="#1F2E30" stroke-width="2"/><rect fill="#1F2E30" width="24" height="4" rx="2"/><path d="M15.8 13.771h-2.429V16.2a1 1 0 0 1-1 1h-.742a1 1 0 0 1-1-1v-2.429H8.2a1 1 0 0 1-1-1v-.742a1 1 0 0 1 1-1h2.429V8.6a1 1 0 0 1 1-1h.742a1 1 0 0 1 1 1v2.429H15.8a1 1 0 0 1 1 1v.742a1 1 0 0 1-1 1z" fill="#1F2E30"/></g></svg>
