<svg width="24" height="24" viewBox="0 0 24 24" xmlns="http://www.w3.org/2000/svg"><g fill="#1F2E30" fill-rule="evenodd"><path d="M12 0C5.373 0 0 5.373 0 12s5.373 12 12 12 12-5.373 12-12S18.627 0 12 0m0 2c5.514 0 10 4.486 10 10s-4.486 10-10 10S2 17.514 2 12 6.486 2 12 2"/><path d="M7.874 11.41l-.056.049a.798.798 0 0 0 0 1.212l5.006 4.29a1 1 0 0 0 1.302 0l.056-.048a.798.798 0 0 0 0-1.212l-5.006-4.29a1 1 0 0 0-1.302 0z"/><path d="M14.182 7.13l-.056-.049a1 1 0 0 0-1.302 0l-5.006 4.291a.798.798 0 0 0 0 1.213l.056.048a1 1 0 0 0 1.302 0l5.006-4.291a.798.798 0 0 0 0-1.212z"/></g></svg>
