<svg width="24" height="24" viewBox="0 0 24 24" xmlns="http://www.w3.org/2000/svg"><g fill="none" fill-rule="evenodd"><path d="M0 0h24v24H0z"/><path d="M12 0C5.373 0 0 5.373 0 12s5.373 12 12 12c6.628 0 12-5.373 12-12S18.628 0 12 0m0 2c5.515 0 10 4.486 10 10s-4.485 10-10 10C6.486 22 2 17.514 2 12S6.486 2 12 2" fill="#1F2E30"/><path d="M16.096 11.419l-3.797.372V6.84c0-.644-.537-1.167-1.195-1.167-.659 0-1.195.523-1.195 1.167v5.473c0 .525.23 1.029.63 1.382a1.942 1.942 0 0 0 1.47.469l4.325-.423c.323-.032.613-.185.814-.433.197-.241.287-.541.256-.846-.067-.646-.64-1.097-1.308-1.044" fill="#1F2E30"/></g></svg>
