<svg width="24" height="24" viewBox="0 0 24 24" xmlns="http://www.w3.org/2000/svg"><g fill="none" fill-rule="evenodd"><path d="M22 5h-3V2a1 1 0 0 0-1-1H2a1 1 0 0 0-1 1v16a1 1 0 0 0 1 1h3v3a1 1 0 0 0 1 1h16a1 1 0 0 0 1-1V6a1 1 0 0 0-1-1z" stroke="#fff" stroke-width="2"/><rect stroke="#fff" stroke-width="2" x="5" y="5" width="18" height="18" rx="2"/><path d="M17 15.143h-1.857V17a1 1 0 0 1-1 1h-.286a1 1 0 0 1-1-1v-1.857H11a1 1 0 0 1-1-1v-.286a1 1 0 0 1 1-1h1.857V11a1 1 0 0 1 1-1h.286a1 1 0 0 1 1 1v1.857H17a1 1 0 0 1 1 1v.286a1 1 0 0 1-1 1z" fill="#fff"/></g></svg>
