<svg width="24" height="24" viewBox="0 0 24 24" xmlns="http://www.w3.org/2000/svg"><g fill="#1F2E30" fill-rule="evenodd"><path d="M20.262 22.22H4.174a.44.44 0 0 1-.435-.443V4.406c.143.03.289.044.435.044h2.441v3.635c0 .417.176.805.474 1.038a.86.86 0 0 0 .983.084l.499-.92.501.92a.855.855 0 0 0 .979-.07c.298-.232.475-.625.475-1.052V4.45h9.736v17.77zM4.174 2.671a.44.44 0 0 1-.435-.444c0-.246.195-.446.435-.446h16.958A.88.88 0 0 0 22 .891.88.88 0 0 0 21.132 0H4.174C2.976 0 2 .999 2 2.226v19.556C2.003 23.004 2.978 24 4.174 24h16.957a.88.88 0 0 0 .869-.89V3.556a.882.882 0 0 0-.869-.891l-16.957.006z"/><path d="M7.75 12h8.5a.75.75 0 1 1 0 1.5h-8.5a.75.75 0 1 1 0-1.5zM7.75 15h8.5a.75.75 0 1 1 0 1.5h-8.5a.75.75 0 1 1 0-1.5zM7.75 18h4.5a.75.75 0 1 1 0 1.5h-4.5a.75.75 0 1 1 0-1.5z"/></g></svg>
