<svg width="24" height="24" viewBox="0 0 24 24" xmlns="http://www.w3.org/2000/svg"><g fill="none" fill-rule="evenodd"><path d="M2 1a1 1 0 0 0-1 1v18a3 3 0 0 0 3 3h16a3 3 0 0 0 3-3V2a1 1 0 0 0-1-1H2z" stroke="#1F2E30" stroke-width="2"/><rect fill="#1F2E30" width="24" height="4" rx="2"/><g transform="translate(4 7)" fill="#1F2E30"><rect width="4" height="4" rx="1"/><rect x="6" width="4" height="4" rx="1"/><rect x="12" width="4" height="4" rx="1"/><rect y="6" width="4" height="4" rx="1"/><rect x="6" y="6" width="4" height="4" rx="1"/></g></g></svg>
