<svg width="24" height="24" viewBox="0 0 24 24" xmlns="http://www.w3.org/2000/svg"><g fill="none" fill-rule="evenodd"><path d="M15.342 22.154H19V1.846h-3.658C15.123 3.284 13.707 4.398 12 4.398c-1.708 0-3.123-1.114-3.343-2.552H5v20.308h3.657c.22-1.438 1.635-2.552 3.343-2.552 1.707 0 3.123 1.114 3.342 2.552M19.372 24h-4.373c-.898 0-1.628-.654-1.628-1.457 0-.603-.615-1.094-1.371-1.094-.757 0-1.372.49-1.372 1.094 0 .803-.73 1.457-1.627 1.457H4.627C3.73 24 3 23.346 3 22.543V1.457C3 .654 3.73 0 4.627 0h4.374c.897 0 1.627.654 1.627 1.457 0 .603.615 1.094 1.372 1.094.756 0 1.371-.49 1.371-1.094 0-.803.73-1.457 1.628-1.457h4.373C20.27 0 21 .654 21 1.457v21.086c0 .803-.73 1.457-1.628 1.457" fill="#1F2E30"/><path d="M5 8h15" stroke="#1F2E30" stroke-width="1.5" stroke-linecap="square" stroke-dasharray="1,3,1,3"/><path d="M5 16h15" stroke="#1F2E30" stroke-width="1.5" fill="#1F2E30" stroke-linecap="square" stroke-dasharray="1,3,1,3"/></g></svg>
