<svg width="24" height="24" viewBox="0 0 24 24" xmlns="http://www.w3.org/2000/svg"><g fill="#1F2E30" fill-rule="evenodd"><path d="M18.067 10.583a4.898 4.898 0 0 0 3.552-4.676A4.936 4.936 0 0 0 18.4 1.348a4.95 4.95 0 0 0-5.42 1.348c.443.21.862.471 1.247.776a3.499 3.499 0 0 1 3.763-.73 3.488 3.488 0 0 1 2.17 3.155 3.472 3.472 0 0 1-3.485 3.45h-.125a6.318 6.318 0 0 1-1.017 2.664c.38-.075.765-.114 1.152-.115a5.851 5.851 0 0 1 5.875 5.75H24a7.296 7.296 0 0 0-5.933-7.063z"/><path d="M12.758 14.34a6.418 6.418 0 0 0 3.597-7.627 6.432 6.432 0 0 0-7.07-4.61 6.425 6.425 0 0 0-5.55 6.353A6.411 6.411 0 0 0 7.68 14.34 9.987 9.987 0 0 0 .96 24h1.853c0-4.437 3.321-8.05 7.401-8.05s7.402 3.613 7.402 8.05h1.853a9.987 9.987 0 0 0-6.71-9.66zM5.654 8.456a4.552 4.552 0 0 1 2.782-4.24 4.566 4.566 0 0 1 4.985.956 4.546 4.546 0 0 1 1.01 4.967 4.56 4.56 0 0 1-4.217 2.821 4.537 4.537 0 0 1-4.56-4.504z"/></g></svg>
