<svg width="24" height="24" viewBox="0 0 24 24" xmlns="http://www.w3.org/2000/svg"><g fill="none" fill-rule="evenodd"><path d="M5 23h15a3 3 0 0 0 3-3V4a3 3 0 0 0-3-3H8a3 3 0 0 0-3 3v19zM5 23H4a3 3 0 0 1-3-3v-9a2 2 0 1 1 4 0v12z" stroke="#006272" stroke-width="2"/><rect stroke="#006272" stroke-width="1.5" x="8.75" y="4.75" width="10.5" height="6.5" rx="1"/><rect fill="#006272" x="8" y="14" width="12" height="1.5" rx=".75"/><rect fill="#006272" x="8" y="18" width="12" height="1.5" rx=".75"/></g></svg>
