<svg width="24" height="24" viewBox="0 0 24 24" xmlns="http://www.w3.org/2000/svg"><g transform="translate(2 1)" fill="none" fill-rule="evenodd"><path d="M1.169 17.7H18.83a.169.169 0 0 0 .169-.169c0-.468-.194-.916-.537-1.236l-.695-.65a4 4 0 0 1-1.268-2.922v-5.71A6.012 6.012 0 0 0 10.488 1h-.976A6.012 6.012 0 0 0 3.5 7.013v5.71a4 4 0 0 1-1.268 2.922l-.695.65c-.343.32-.537.768-.537 1.236 0 .093.076.169.169.169z" stroke="#1F2E30" stroke-width="2"/><ellipse fill="#1F2E30" cx="10" cy="19.8" rx="2.222" ry="2.2"/></g></svg>
