<svg width="20" height="20" xmlns="http://www.w3.org/2000/svg" viewBox="0 0 20 20"><path d="M19.955 15.496c-.057-.17-.416-.422-1.08-.752a32.68 32.68 0 0 0-.766-.428c-.332-.18-.633-.346-.902-.498-.27-.15-.521-.299-.76-.439a24.125 24.125 0 0 0-.354-.248 3.971 3.971 0 0 0-.506-.305.93.93 0 0 0-.404-.102c-.189 0-.426.135-.709.404a6.647 6.647 0 0 0-.781.883 8.99 8.99 0 0 1-.752.879c-.266.271-.482.406-.654.406a.957.957 0 0 1-.318-.072 3.562 3.562 0 0 1-.291-.119 7.893 7.893 0 0 1-.342-.199 4.974 4.974 0 0 0-.271-.162c-1.297-.723-2.409-1.545-3.338-2.475-.928-.928-1.752-2.04-2.471-3.336a9.488 9.488 0 0 0-.164-.271 5.812 5.812 0 0 1-.199-.34 3.286 3.286 0 0 1-.122-.291.967.967 0 0 1-.07-.319c0-.171.135-.39.404-.653.271-.267.565-.518.881-.754.317-.237.611-.497.882-.781.27-.284.403-.521.403-.711a.903.903 0 0 0-.099-.403 3.769 3.769 0 0 0-.304-.505l-.249-.355c-.142-.236-.289-.49-.441-.759a61.35 61.35 0 0 1-.497-.903 43.897 43.897 0 0 0-.426-.766C4.923.459 4.672.1 4.502.042A.785.785 0 0 0 4.204 0c-.256 0-.59.047-1 .143A5.46 5.46 0 0 0 2.23.44c-.473.198-.975.776-1.505 1.732-.483.891-.724 1.771-.724 2.642 0 .256.017.504.05.746.033.241.092.516.178.817.084.303.154.527.205.674.052.146.149.409.292.789.142.378.228.61.254.695.332.929.726 1.758 1.181 2.485.748 1.213 1.768 2.465 3.061 3.758 1.292 1.293 2.544 2.312 3.757 3.062.729.455 1.559.848 2.485 1.178.086.029.318.115.697.258.377.143.643.238.789.289.146.055.371.123.674.207.303.086.576.146.816.178.243.032.491.05.747.05.873 0 1.752-.242 2.643-.725.955-.529 1.533-1.031 1.732-1.508.104-.234.205-.559.299-.971s.14-.745.14-1a.818.818 0 0 0-.045-.299"/></svg>