<svg width="24" height="24" viewBox="0 0 24 24" xmlns="http://www.w3.org/2000/svg"><g fill="#006272" fill-rule="evenodd"><path d="M6.511 19.31L1.861 24H-1.1l6.203-6.1zM17.6 12.497c-.581.581-.877 1.1-1.023 1.697-.082.336-.115.633-.16 1.309-.186 2.864-.86 4.563-3.588 7.294a.931.931 0 0 1-1.317 0l-9.658-9.668a.92.92 0 0 1 0-1.3c2.73-2.732 4.43-3.408 7.295-3.596.675-.044.972-.077 1.306-.159.594-.146 1.109-.44 1.688-1.02.89-.891 1.082-1.496 1.171-2.962.086-1.406.263-2.08 1-2.872a.931.931 0 0 1 1.34-.024l8.048 8.056a.92.92 0 0 1-.024 1.324c-.822.765-1.53.907-3.065.901-1.526-.006-2.153.159-3.013 1.02zm-3.036 2.887c.051-.781.093-1.154.208-1.627.228-.928.693-1.743 1.51-2.56 1.29-1.293 2.362-1.573 4.338-1.566.338.001.603-.005.82-.023l-6.195-6.201a8.31 8.31 0 0 0-.077.797c-.114 1.871-.433 2.874-1.707 4.15-.816.817-1.631 1.284-2.56 1.512-.474.117-.848.159-1.63.21-2.205.144-3.457.571-5.438 2.414l8.326 8.335c1.835-1.98 2.262-3.235 2.405-5.441z"/></g></svg>
