<svg width="24" height="24" viewBox="0 0 24 24" xmlns="http://www.w3.org/2000/svg"><g fill="none" fill-rule="evenodd"><path d="M0 0h24v24H0z"/><path d="M22 16.96c0 .53-.272.835-.359.835h-1.719v-3.45h.578a.501.501 0 1 0 0-1.006h-17c-.276 0-.5.226-.5.504s.224.503.5.503h.577v3.449H2.359c-.087 0-.359-.305-.359-.834V8.398c0-.54.27-.835.359-.835h19.282c.089 0 .359.296.359.835v8.563zm-4.443 5.027H6.442c-.09 0-.365-.298-.365-.841v-6.8h11.845v6.8c0 .543-.275.84-.365.84zM6.077 2.855c0-.543.275-.842.365-.842h11.115c.09 0 .365.299.365.842V5.55H6.077V2.855zM21.641 5.55h-1.719V2.855C19.922 1.254 18.883 0 17.557 0H6.442C5.116 0 4.077 1.254 4.077 2.855V5.55H2.359C1.036 5.55 0 6.8 0 8.398v8.563c0 1.596 1.036 2.847 2.359 2.847h1.718v1.338c0 1.6 1.039 2.854 2.365 2.854h11.115c1.326 0 2.365-1.254 2.365-2.854v-1.338h1.719c1.323 0 2.359-1.251 2.359-2.847V8.398C24 6.8 22.964 5.55 21.641 5.55z" fill="#1F2E30"/><path d="M16.667 19.698H7.332c-.276 0-.5.226-.5.504 0 .277.224.503.5.503h9.335c.276 0 .5-.226.5-.503a.502.502 0 0 0-.5-.504M7.414 18.636h9.171c.276 0 .5-.226.5-.504a.502.502 0 0 0-.5-.503h-9.17c-.277 0-.5.226-.5.503 0 .278.223.504.5.504M7.414 16.566h9.171c.276 0 .5-.225.5-.503a.501.501 0 0 0-.5-.503h-9.17c-.277 0-.5.225-.5.503s.223.503.5.503" fill="#1F2E30"/></g></svg>
