<svg xmlns="http://www.w3.org/2000/svg" width="30" height="30" viewBox="0 0 40 40"><g fill="#fff"><path opacity=".2" d="M20.2 5.169c-8.254 0-14.946 6.692-14.946 14.946 0 8.255 6.692 14.946 14.946 14.946s14.946-6.691 14.946-14.946C35.145 11.861 28.454 5.169 20.2 5.169m0 26.58c-6.425 0-11.634-5.208-11.634-11.634 0-6.425 5.209-11.634 11.634-11.634 6.425 0 11.633 5.209 11.633 11.634 0 6.426-5.208 11.634-11.633 11.634"/><path d="M26.01 10.05l1.654-2.866a14.853 14.853 0 0 0-7.466-2.01v3.312c2.119 0 4.1.576 5.812 1.566"><animateTransform attributeType="xml" attributeName="transform" type="rotate" from="0 20 20" to="360 20 20" dur="0.8s" repeatCount="indefinite"/></path></g></svg>