<svg width="24" height="24" viewBox="0 0 24 24" xmlns="http://www.w3.org/2000/svg"><g fill="#009bb2" fill-rule="evenodd"><path d="M13.075 17.368c0 .625-.544 1.132-1.215 1.132-.672 0-1.216-.507-1.216-1.132 0-.626.544-1.133 1.216-1.133.67 0 1.215.507 1.215 1.133v.002-.002z"/><path d="M12 0C5.373 0 0 5.373 0 12s5.373 12 12 12 12-5.373 12-12S18.627 0 12 0m0 2c5.514 0 10 4.486 10 10s-4.486 10-10 10S2 17.514 2 12 6.486 2 12 2"/><path d="M8.068 8.544a1.055 1.055 0 0 1 .052-.86c.678-1.327 2.112-2.176 3.69-2.184h.025c2.242.008 4.08 1.662 4.163 3.75.056 1.692-1.084 3.219-2.807 3.759 0 0-.12.039-.12.105v.899c0 .622-.543 1.126-1.21 1.126-.668 0-1.21-.504-1.21-1.126v-.9c.012-1.02.72-1.921 1.762-2.238.718-.227 1.193-.864 1.17-1.57-.05-.864-.81-1.545-1.738-1.556-.659.006-1.256.362-1.538.916-.284.563-1.003.804-1.607.54a1.155 1.155 0 0 1-.632-.661"/></g></svg>
