<svg width="24" height="24" viewBox="0 0 24 24" xmlns="http://www.w3.org/2000/svg"><g fill="none" fill-rule="evenodd"><path d="M15.657 10.283L13.939 12l1.718 1.717a1 1 0 0 1 0 1.414l-.526.526a1 1 0 0 1-1.414 0L12 13.939l-1.717 1.718a1 1 0 0 1-1.414 0l-.526-.526a1 1 0 0 1 0-1.414L10.061 12l-1.718-1.717a1 1 0 0 1 0-1.414l.526-.526a1 1 0 0 1 1.414 0L12 10.061l1.717-1.718a1 1 0 0 1 1.414 0l.526.526a1 1 0 0 1 0 1.414z" fill="#1F2E30"/><path d="M12 1C5.925 1 1 5.925 1 12s4.925 11 11 11 11-4.925 11-11S18.075 1 12 1zm0 0c6.067 0 11 4.933 11 11s-4.933 11-11 11C5.934 23 1 18.066 1 12S5.934 1 12 1z" stroke="#1F2E30" stroke-width="2"/></g></svg>
