<svg width="24" height="24" viewBox="0 0 24 24" xmlns="http://www.w3.org/2000/svg"><path d="M4.204 4.208a7.477 7.477 0 0 1 5.32-2.203c2.01 0 3.897.783 5.318 2.203 2.932 2.932 2.932 7.703 0 10.636-2.934 2.932-7.705 2.932-10.638 0-2.933-2.933-2.933-7.704 0-10.636zm12.728 11.307c3.027-3.738 2.803-9.251-.67-12.725A9.47 9.47 0 0 0 9.522 0a9.464 9.464 0 0 0-6.737 2.79c-3.715 3.714-3.715 9.758 0 13.472a9.497 9.497 0 0 0 6.737 2.786 9.51 9.51 0 0 0 5.991-2.115l6.774 6.773a.996.996 0 0 0 .71.293 1.002 1.002 0 0 0 .709-1.711l-6.775-6.773z" fill="#1F2E30" fill-rule="evenodd"/></svg>
