<svg width="24" height="24" viewBox="0 0 24 24" xmlns="http://www.w3.org/2000/svg"><path d="M23.626 10.495c-.192-.122-1.707-1.027-2.307-1.303l-.744-1.8c.221-.595.646-2.263.72-2.554a.802.802 0 0 0-.216-.744l-1.173-1.166a.797.797 0 0 0-.744-.216c-.221.05-1.92.48-2.554.72l-1.8-.744c-.262-.576-1.142-2.052-1.303-2.306a.797.797 0 0 0-.68-.382h-1.65a.804.804 0 0 0-.68.374c-.122.192-1.027 1.707-1.303 2.307l-1.8.744c-.595-.221-2.263-.646-2.554-.72a.802.802 0 0 0-.744.216L2.928 4.094a.797.797 0 0 0-.216.744c.05.221.48 1.92.72 2.554l-.744 1.8c-.576.262-2.052 1.142-2.306 1.303a.797.797 0 0 0-.382.68v1.648c0 .276.141.532.374.68.192.122 1.707 1.027 2.307 1.303l.744 1.8c-.221.595-.646 2.263-.72 2.553-.06.269.02.55.216.744l1.166 1.167a.797.797 0 0 0 .744.216c.221-.05 1.92-.48 2.554-.72l1.8.744c.261.576 1.142 2.052 1.303 2.306.145.24.406.386.686.384h1.65a.804.804 0 0 0 .678-.374c.123-.192 1.028-1.707 1.304-2.307l1.8-.744c.595.221 2.263.646 2.553.72.269.06.55-.02.744-.216l1.167-1.166a.797.797 0 0 0 .216-.744c-.05-.221-.48-1.92-.72-2.554l.744-1.8c.576-.261 2.052-1.142 2.306-1.303a.797.797 0 0 0 .384-.686v-1.652a.792.792 0 0 0-.374-.679zM12 17.225A5.23 5.23 0 1 1 17.234 12 5.237 5.237 0 0 1 12 17.225z" fill="#1F2E30" fill-rule="evenodd"/></svg>
