<svg width="24" height="24" viewBox="0 0 24 24" xmlns="http://www.w3.org/2000/svg"><path d="M11.983 2c-.009.035-.139.148-.289.465L8.865 8.461l-6.34.965c-.36.054-.503.163-.525.197.001.023.047.22.339.517l4.564 4.655-1.076 6.564c-.066.404-.002.605.025.641-.007-.02.17-.03.469-.195l5.682-3.124 5.683 3.124c.296.164.474.17.513.166-.018-.007.047-.208-.02-.613l-1.076-6.562 4.564-4.655c.292-.298.336-.495.333-.532-.017-.02-.16-.13-.518-.183L15.14 8.46 12.31 2.465c-.15-.317-.28-.43-.328-.465m6.276 22c-.378 0-.839-.104-1.38-.4L12 20.912 7.116 23.6c-1.246.686-2.07.34-2.449.071-.389-.275-1.006-.958-.763-2.442l.941-5.748-3.98-4.063c-.748-.762-1.03-1.64-.773-2.409.252-.756.981-1.279 2.001-1.434l5.468-.832 2.454-5.204C10.646.2 11.53 0 11.998 0c.47 0 1.353.2 1.982 1.538l2.454 5.204 5.468.832c1.02.155 1.75.677 2.001 1.433.257.77-.024 1.648-.77 2.41l-3.984 4.064.944 5.747c.242 1.485-.375 2.167-.765 2.443a1.84 1.84 0 0 1-1.069.33" fill="#fff" fill-rule="evenodd"/></svg>
