<svg width="24" height="24" viewBox="0 0 24 24" xmlns="http://www.w3.org/2000/svg"><g fill="#1F2E30" fill-rule="evenodd"><path d="M12 18.152c.602 0 1.09-.483 1.09-1.078V3.607l2.518 2.38a1.1 1.1 0 0 0 1.544-.032 1.071 1.071 0 0 0-.033-1.526L12.755.3a1.1 1.1 0 0 0-1.51 0L6.88 4.43a1.071 1.071 0 0 0-.033 1.526 1.1 1.1 0 0 0 1.544.033l2.517-2.381v13.467c0 .595.489 1.078 1.091 1.078z"/><path d="M3 15.867v3a3 3 0 0 0 3 3h12a3 3 0 0 0 3-3v-3a1.01 1.01 0 0 1 2 0v3.5a4.5 4.5 0 0 1-4.5 4.5h-13a4.5 4.5 0 0 1-4.5-4.5v-3.5a1.01 1.01 0 0 1 2 0z"/></g></svg>
