<svg width="24" height="24" viewBox="0 0 24 24" xmlns="http://www.w3.org/2000/svg"><g fill="#1F2E30" fill-rule="evenodd"><path d="M12 0C5.373 0 0 5.373 0 12s5.373 12 12 12 12-5.373 12-12S18.627 0 12 0m0 2c5.514 0 10 4.486 10 10s-4.486 10-10 10S2 17.514 2 12 6.486 2 12 2"/><path d="M10.87 16a1.28 1.28 0 0 1-.899-.364l-2.623-2.571a1.152 1.152 0 0 1 0-1.65 1.207 1.207 0 0 1 1.685 0l1.77 1.733L14.9 8.412a1.209 1.209 0 0 1 1.68-.135c.501.417.562 1.154.137 1.645l-4.915 5.68-.035.034c-.24.234-.558.364-.898.364"/></g></svg>
