<svg width="24" height="24" viewBox="0 0 24 24" xmlns="http://www.w3.org/2000/svg"><g fill-rule="nonzero" stroke="#1F2E30" fill="none"><path d="M1.458 12.458A.458.458 0 0 1 1 12C1 5.934 5.934 1 12 1c2.938 0 5.7 1.144 7.778 3.222l1.051 1.035a.458.458 0 1 1-.643.653l-1.053-1.037A10.017 10.017 0 0 0 12 1.917C6.44 1.917 1.917 6.44 1.917 12a.458.458 0 0 1-.459.458zM12 23c-2.939 0-5.7-1.144-7.778-3.222L3.23 18.8a.458.458 0 1 1 .643-.654l.995.981A10.021 10.021 0 0 0 12 22.083c5.56 0 10.083-4.523 10.083-10.083A.458.458 0 1 1 23 12c0 6.066-4.934 11-11 11z"/><path d="M20.384 6.5h-4.259a.458.458 0 1 1 0-.917h3.125a1 1 0 0 0 1-1V1.458a.458.458 0 0 1 .917 0v4.26a.782.782 0 0 1-.782.782zM3.292 23a.458.458 0 0 1-.459-.458v-4.26a.782.782 0 0 1 .782-.782h4.26a.458.458 0 0 1 0 .917H4.75a1 1 0 0 0-1 1v3.125a.458.458 0 0 1-.458.458z"/></g></svg>
